<mxfile host="Electron" modified="2024-03-25T21:57:44.880Z" agent="Mozilla/5.0 (Windows NT 10.0; Win64; x64) AppleWebKit/537.36 (KHTML, like Gecko) draw.io/24.1.0 Chrome/120.0.6099.109 Electron/28.1.0 Safari/537.36" etag="ZNTdBcpMg3gS-WhMlxt_" version="24.1.0" type="device">
  <diagram id="bsTosLUH5mfE9uCYUgKQ" name="Page-1">
    <mxGraphModel dx="1050" dy="629" grid="1" gridSize="10" guides="1" tooltips="1" connect="1" arrows="1" fold="1" page="1" pageScale="1" pageWidth="1920" pageHeight="1200" math="0" shadow="0">
      <root>
        <mxCell id="0" />
        <mxCell id="1" parent="0" />
        <mxCell id="t8oGIxHCCfBVZsMOv7Ev-1" value="" style="rounded=0;whiteSpace=wrap;html=1;fontSize=22;fillColor=#f5f5f5;fontColor=#333333;strokeColor=#666666;direction=east;strokeWidth=2;fontStyle=1" parent="1" vertex="1">
          <mxGeometry x="210" y="220" width="2140" height="1506" as="geometry" />
        </mxCell>
        <mxCell id="Joddp9kIxZkXrCVyOgkU-78" value="" style="rounded=0;whiteSpace=wrap;html=1;strokeWidth=2;fontStyle=1;" parent="1" vertex="1">
          <mxGeometry x="243" y="770" width="2077" height="150" as="geometry" />
        </mxCell>
        <mxCell id="t8oGIxHCCfBVZsMOv7Ev-2" value="" style="rounded=0;whiteSpace=wrap;html=1;strokeWidth=2;fontStyle=1;fontSize=11;" parent="1" vertex="1">
          <mxGeometry x="244" y="1233" width="2076" height="454.19" as="geometry" />
        </mxCell>
        <mxCell id="t8oGIxHCCfBVZsMOv7Ev-3" value="" style="rounded=0;whiteSpace=wrap;html=1;strokeWidth=2;fontStyle=1;" parent="1" vertex="1">
          <mxGeometry x="244" y="925.5" width="2076" height="307.5" as="geometry" />
        </mxCell>
        <mxCell id="t8oGIxHCCfBVZsMOv7Ev-5" value="" style="rounded=0;whiteSpace=wrap;html=1;strokeWidth=2;fontStyle=1;" parent="1" vertex="1">
          <mxGeometry x="243" y="270" width="2077" height="510" as="geometry" />
        </mxCell>
        <mxCell id="t8oGIxHCCfBVZsMOv7Ev-7" value="CLAIMANT / SUBSCRIBER" style="text;html=1;align=center;verticalAlign=middle;resizable=0;points=[];autosize=1;strokeColor=none;fillColor=none;fontStyle=1;fontSize=23;strokeWidth=2;horizontal=0;" parent="1" vertex="1">
          <mxGeometry x="243" y="300" width="50" height="300" as="geometry" />
        </mxCell>
        <mxCell id="t8oGIxHCCfBVZsMOv7Ev-10" value="LM.3" style="text;html=1;align=center;verticalAlign=middle;resizable=0;points=[];autosize=1;strokeColor=none;fillColor=none;fontStyle=1;strokeWidth=2;fontSize=29;" parent="1" vertex="1">
          <mxGeometry x="1236.5" y="217.75" width="90" height="50" as="geometry" />
        </mxCell>
        <mxCell id="t8oGIxHCCfBVZsMOv7Ev-11" value="A" style="ellipse;whiteSpace=wrap;html=1;aspect=fixed;strokeWidth=2;fontStyle=1;fontSize=22;direction=south;" parent="1" vertex="1">
          <mxGeometry x="240" y="230.75" width="30" height="30" as="geometry" />
        </mxCell>
        <mxCell id="t8oGIxHCCfBVZsMOv7Ev-12" value="&lt;font style=&quot;font-size: 14px;&quot;&gt;LEGEND&lt;/font&gt;" style="swimlane;whiteSpace=wrap;html=1;" parent="1" vertex="1">
          <mxGeometry x="2350" y="220" width="200" height="230" as="geometry" />
        </mxCell>
        <mxCell id="t8oGIxHCCfBVZsMOv7Ev-13" value="KM" style="ellipse;whiteSpace=wrap;html=1;fillColor=#dae8fc;strokeColor=#6c8ebf;gradientColor=#7ea6e0;fontStyle=1" parent="t8oGIxHCCfBVZsMOv7Ev-12" vertex="1">
          <mxGeometry x="10" y="30" width="30" height="26" as="geometry" />
        </mxCell>
        <mxCell id="t8oGIxHCCfBVZsMOv7Ev-14" value="IDA" style="ellipse;whiteSpace=wrap;html=1;fillColor=#dae8fc;strokeColor=#6c8ebf;gradientColor=#7ea6e0;fontStyle=1" parent="t8oGIxHCCfBVZsMOv7Ev-12" vertex="1">
          <mxGeometry x="10" y="131" width="30" height="26" as="geometry" />
        </mxCell>
        <mxCell id="t8oGIxHCCfBVZsMOv7Ev-15" value="HSM" style="ellipse;whiteSpace=wrap;html=1;fillColor=#dae8fc;strokeColor=#6c8ebf;gradientColor=#7ea6e0;fontStyle=1" parent="t8oGIxHCCfBVZsMOv7Ev-12" vertex="1">
          <mxGeometry x="10" y="91" width="30" height="26" as="geometry" />
        </mxCell>
        <mxCell id="t8oGIxHCCfBVZsMOv7Ev-16" value="KR" style="ellipse;whiteSpace=wrap;html=1;fillColor=#dae8fc;strokeColor=#6c8ebf;gradientColor=#7ea6e0;fontStyle=1" parent="t8oGIxHCCfBVZsMOv7Ev-12" vertex="1">
          <mxGeometry x="10" y="59" width="30" height="26" as="geometry" />
        </mxCell>
        <mxCell id="t8oGIxHCCfBVZsMOv7Ev-17" value="Key Manager" style="text;html=1;strokeColor=none;fillColor=none;align=center;verticalAlign=middle;whiteSpace=wrap;rounded=0;fontSize=14;" parent="t8oGIxHCCfBVZsMOv7Ev-12" vertex="1">
          <mxGeometry x="40" y="30" width="160" height="28" as="geometry" />
        </mxCell>
        <mxCell id="t8oGIxHCCfBVZsMOv7Ev-18" value="Key Revocation" style="text;html=1;strokeColor=none;fillColor=none;align=center;verticalAlign=middle;whiteSpace=wrap;rounded=0;fontSize=14;" parent="t8oGIxHCCfBVZsMOv7Ev-12" vertex="1">
          <mxGeometry x="40" y="58" width="160" height="28" as="geometry" />
        </mxCell>
        <mxCell id="t8oGIxHCCfBVZsMOv7Ev-19" value="Hardware Security Module" style="text;html=1;strokeColor=none;fillColor=none;align=center;verticalAlign=middle;whiteSpace=wrap;rounded=0;fontSize=14;" parent="t8oGIxHCCfBVZsMOv7Ev-12" vertex="1">
          <mxGeometry x="40" y="90" width="160" height="28" as="geometry" />
        </mxCell>
        <mxCell id="t8oGIxHCCfBVZsMOv7Ev-20" value="ID Authentication (DB)" style="text;html=1;strokeColor=none;fillColor=none;align=center;verticalAlign=middle;whiteSpace=wrap;rounded=0;fontSize=14;" parent="t8oGIxHCCfBVZsMOv7Ev-12" vertex="1">
          <mxGeometry x="40" y="130" width="160" height="28" as="geometry" />
        </mxCell>
        <mxCell id="t8oGIxHCCfBVZsMOv7Ev-21" value="AC" style="ellipse;whiteSpace=wrap;html=1;fillColor=#dae8fc;strokeColor=#6c8ebf;gradientColor=#7ea6e0;fontStyle=1" parent="t8oGIxHCCfBVZsMOv7Ev-12" vertex="1">
          <mxGeometry x="10" y="161" width="30" height="26" as="geometry" />
        </mxCell>
        <mxCell id="t8oGIxHCCfBVZsMOv7Ev-22" value="Access Control" style="text;html=1;strokeColor=none;fillColor=none;align=center;verticalAlign=middle;whiteSpace=wrap;rounded=0;fontSize=14;" parent="t8oGIxHCCfBVZsMOv7Ev-12" vertex="1">
          <mxGeometry x="40" y="160" width="160" height="28" as="geometry" />
        </mxCell>
        <mxCell id="t8oGIxHCCfBVZsMOv7Ev-23" value="Certificate Authority" style="text;html=1;strokeColor=none;fillColor=none;align=center;verticalAlign=middle;whiteSpace=wrap;rounded=0;fontSize=14;" parent="t8oGIxHCCfBVZsMOv7Ev-12" vertex="1">
          <mxGeometry x="40" y="190" width="160" height="28" as="geometry" />
        </mxCell>
        <mxCell id="t8oGIxHCCfBVZsMOv7Ev-24" value="CA" style="ellipse;whiteSpace=wrap;html=1;fillColor=#dae8fc;strokeColor=#6c8ebf;gradientColor=#7ea6e0;fontStyle=1" parent="t8oGIxHCCfBVZsMOv7Ev-12" vertex="1">
          <mxGeometry x="10" y="191" width="30" height="26" as="geometry" />
        </mxCell>
        <mxCell id="t8oGIxHCCfBVZsMOv7Ev-25" value="PRIVATE NETWORK&lt;br style=&quot;border-color: var(--border-color);&quot;&gt;SYSTEMS (SERVER)" style="text;html=1;align=center;verticalAlign=middle;resizable=0;points=[];autosize=1;strokeColor=none;fillColor=none;fontStyle=1;fontSize=23;strokeWidth=2;horizontal=0;" parent="1" vertex="1">
          <mxGeometry x="253" y="1342.19" width="80" height="240" as="geometry" />
        </mxCell>
        <mxCell id="t8oGIxHCCfBVZsMOv7Ev-26" value="PUBLIC NETWORK&lt;br style=&quot;border-color: var(--border-color);&quot;&gt;SYSTEMS (CLIENT)" style="text;html=1;align=center;verticalAlign=middle;resizable=0;points=[];autosize=1;strokeColor=none;fillColor=none;fontStyle=1;fontSize=23;strokeWidth=2;horizontal=0;" parent="1" vertex="1">
          <mxGeometry x="253" y="977.19" width="80" height="230" as="geometry" />
        </mxCell>
        <mxCell id="t8oGIxHCCfBVZsMOv7Ev-33" value="&lt;font style=&quot;font-size: 14px;&quot;&gt;PUBLIC NETWORK&lt;/font&gt;" style="swimlane;whiteSpace=wrap;html=1;" parent="1" vertex="1">
          <mxGeometry x="2350" y="977.19" width="200" height="167" as="geometry" />
        </mxCell>
        <mxCell id="t8oGIxHCCfBVZsMOv7Ev-34" value="DNS SERVERS" style="text;html=1;strokeColor=none;fillColor=none;align=center;verticalAlign=middle;whiteSpace=wrap;rounded=0;fontSize=14;" parent="t8oGIxHCCfBVZsMOv7Ev-33" vertex="1">
          <mxGeometry y="27" width="200" height="28" as="geometry" />
        </mxCell>
        <mxCell id="t8oGIxHCCfBVZsMOv7Ev-35" value="FTP SERVERS" style="text;html=1;strokeColor=none;fillColor=none;align=center;verticalAlign=middle;whiteSpace=wrap;rounded=0;fontSize=14;" parent="t8oGIxHCCfBVZsMOv7Ev-33" vertex="1">
          <mxGeometry y="55" width="200" height="28" as="geometry" />
        </mxCell>
        <mxCell id="t8oGIxHCCfBVZsMOv7Ev-36" value="MAIL SERVERS" style="text;html=1;strokeColor=none;fillColor=none;align=center;verticalAlign=middle;whiteSpace=wrap;rounded=0;fontSize=14;" parent="t8oGIxHCCfBVZsMOv7Ev-33" vertex="1">
          <mxGeometry y="83" width="200" height="28" as="geometry" />
        </mxCell>
        <mxCell id="t8oGIxHCCfBVZsMOv7Ev-37" value="PROXY SERVERS" style="text;html=1;strokeColor=none;fillColor=none;align=center;verticalAlign=middle;whiteSpace=wrap;rounded=0;fontSize=14;" parent="t8oGIxHCCfBVZsMOv7Ev-33" vertex="1">
          <mxGeometry y="111" width="200" height="28" as="geometry" />
        </mxCell>
        <mxCell id="t8oGIxHCCfBVZsMOv7Ev-38" value="WEB SERVERS" style="text;html=1;strokeColor=none;fillColor=none;align=center;verticalAlign=middle;whiteSpace=wrap;rounded=0;fontSize=14;" parent="t8oGIxHCCfBVZsMOv7Ev-33" vertex="1">
          <mxGeometry y="139" width="200" height="28" as="geometry" />
        </mxCell>
        <mxCell id="t8oGIxHCCfBVZsMOv7Ev-41" value="REPORTING ONLINE: COMPROMISED AUTHENTICATORS&amp;nbsp;" style="text;html=1;align=center;verticalAlign=middle;resizable=0;points=[];autosize=1;strokeColor=none;fillColor=none;fontStyle=1;strokeWidth=2;fontSize=29;" parent="1" vertex="1">
          <mxGeometry x="1490" y="220.75" width="830" height="50" as="geometry" />
        </mxCell>
        <mxCell id="buAgDzbR7j7-b7g-iSKb-22" value="USER" style="shape=umlActor;verticalLabelPosition=bottom;verticalAlign=top;html=1;outlineConnect=0;fontStyle=1" parent="1" vertex="1">
          <mxGeometry x="303" y="388.5" width="30" height="60" as="geometry" />
        </mxCell>
        <mxCell id="Joddp9kIxZkXrCVyOgkU-20" style="edgeStyle=orthogonalEdgeStyle;rounded=0;orthogonalLoop=1;jettySize=auto;html=1;exitX=0.5;exitY=1;exitDx=0;exitDy=0;exitPerimeter=0;strokeColor=#00CC00;fontStyle=1;strokeWidth=2;" parent="1" source="Joddp9kIxZkXrCVyOgkU-25" target="Joddp9kIxZkXrCVyOgkU-19" edge="1">
          <mxGeometry relative="1" as="geometry" />
        </mxCell>
        <mxCell id="Joddp9kIxZkXrCVyOgkU-2" value="&lt;b style=&quot;font-size: 11px;&quot;&gt;START&lt;br&gt;(ONLINE)&lt;br&gt;&lt;/b&gt;" style="strokeWidth=2;html=1;shape=mxgraph.flowchart.terminator;whiteSpace=wrap;fillColor=#d5e8d4;strokeColor=#82b366;fontSize=11;" parent="1" vertex="1">
          <mxGeometry x="410" y="297" width="100" height="40" as="geometry" />
        </mxCell>
        <mxCell id="Joddp9kIxZkXrCVyOgkU-13" style="edgeStyle=orthogonalEdgeStyle;rounded=0;orthogonalLoop=1;jettySize=auto;html=1;exitX=0.5;exitY=1;exitDx=0;exitDy=0;strokeColor=#00CC00;fontStyle=1;strokeWidth=2;" parent="1" source="Joddp9kIxZkXrCVyOgkU-5" target="Joddp9kIxZkXrCVyOgkU-11" edge="1">
          <mxGeometry relative="1" as="geometry" />
        </mxCell>
        <mxCell id="Joddp9kIxZkXrCVyOgkU-66" style="edgeStyle=orthogonalEdgeStyle;rounded=0;orthogonalLoop=1;jettySize=auto;html=1;exitX=1;exitY=0.5;exitDx=0;exitDy=0;entryX=0;entryY=0.5;entryDx=0;entryDy=0;strokeColor=#FF2617;strokeWidth=2;fontStyle=1;" parent="1" source="Joddp9kIxZkXrCVyOgkU-5" target="Joddp9kIxZkXrCVyOgkU-65" edge="1">
          <mxGeometry relative="1" as="geometry" />
        </mxCell>
        <mxCell id="Joddp9kIxZkXrCVyOgkU-5" value="IF &lt;br&gt;PASSWORD &lt;br&gt;COMP." style="rounded=0;whiteSpace=wrap;html=1;fontStyle=1;strokeWidth=2;fontSize=11;shape=rhombus;perimeter=rhombusPerimeter;" parent="1" vertex="1">
          <mxGeometry x="1060" y="317.94999999999993" width="105" height="48.1" as="geometry" />
        </mxCell>
        <mxCell id="Joddp9kIxZkXrCVyOgkU-69" style="edgeStyle=orthogonalEdgeStyle;rounded=0;orthogonalLoop=1;jettySize=auto;html=1;exitX=1;exitY=0.5;exitDx=0;exitDy=0;entryX=0;entryY=0.5;entryDx=0;entryDy=0;strokeColor=#FF2617;strokeWidth=2;fontStyle=1;" parent="1" source="Joddp9kIxZkXrCVyOgkU-7" target="Joddp9kIxZkXrCVyOgkU-68" edge="1">
          <mxGeometry relative="1" as="geometry" />
        </mxCell>
        <mxCell id="Joddp9kIxZkXrCVyOgkU-83" style="edgeStyle=orthogonalEdgeStyle;rounded=0;orthogonalLoop=1;jettySize=auto;html=1;exitX=0.5;exitY=1;exitDx=0;exitDy=0;entryX=0.5;entryY=0;entryDx=0;entryDy=0;strokeColor=#00CC00;fontStyle=1;strokeWidth=2;" parent="1" source="Joddp9kIxZkXrCVyOgkU-7" target="Joddp9kIxZkXrCVyOgkU-75" edge="1">
          <mxGeometry relative="1" as="geometry" />
        </mxCell>
        <mxCell id="Joddp9kIxZkXrCVyOgkU-7" value="IF &lt;br&gt;PHONE/EMAIL&lt;br&gt;COMP." style="rounded=0;whiteSpace=wrap;html=1;fontStyle=1;strokeWidth=2;fontSize=11;shape=rhombus;perimeter=rhombusPerimeter;" parent="1" vertex="1">
          <mxGeometry x="1434.75" y="317.15" width="105" height="48.1" as="geometry" />
        </mxCell>
        <mxCell id="Joddp9kIxZkXrCVyOgkU-74" style="edgeStyle=orthogonalEdgeStyle;rounded=0;orthogonalLoop=1;jettySize=auto;html=1;exitX=1;exitY=0.5;exitDx=0;exitDy=0;entryX=0;entryY=0.5;entryDx=0;entryDy=0;strokeColor=#FF2617;strokeWidth=2;fontStyle=1;" parent="1" source="Joddp9kIxZkXrCVyOgkU-8" target="Joddp9kIxZkXrCVyOgkU-9" edge="1">
          <mxGeometry relative="1" as="geometry" />
        </mxCell>
        <mxCell id="Joddp9kIxZkXrCVyOgkU-95" style="edgeStyle=orthogonalEdgeStyle;rounded=0;orthogonalLoop=1;jettySize=auto;html=1;exitX=0.5;exitY=1;exitDx=0;exitDy=0;entryX=0.5;entryY=0;entryDx=0;entryDy=0;strokeColor=#00CC00;fontStyle=1;strokeWidth=2;" parent="1" source="Joddp9kIxZkXrCVyOgkU-8" target="Joddp9kIxZkXrCVyOgkU-94" edge="1">
          <mxGeometry relative="1" as="geometry" />
        </mxCell>
        <mxCell id="Joddp9kIxZkXrCVyOgkU-8" value="IF &lt;br&gt;PIN&lt;br&gt;COMP." style="rounded=0;whiteSpace=wrap;html=1;fontStyle=1;strokeWidth=2;fontSize=11;shape=rhombus;perimeter=rhombusPerimeter;" parent="1" vertex="1">
          <mxGeometry x="1735" y="313.27" width="70" height="55.85" as="geometry" />
        </mxCell>
        <mxCell id="Joddp9kIxZkXrCVyOgkU-97" style="edgeStyle=orthogonalEdgeStyle;rounded=0;orthogonalLoop=1;jettySize=auto;html=1;exitX=0.5;exitY=1;exitDx=0;exitDy=0;strokeColor=#00CC00;fontStyle=1;strokeWidth=2;" parent="1" source="Joddp9kIxZkXrCVyOgkU-9" target="Joddp9kIxZkXrCVyOgkU-96" edge="1">
          <mxGeometry relative="1" as="geometry" />
        </mxCell>
        <mxCell id="B8y7cgVz7MPoOvuoQykb-2" style="edgeStyle=orthogonalEdgeStyle;rounded=0;orthogonalLoop=1;jettySize=auto;html=1;exitX=1;exitY=0.5;exitDx=0;exitDy=0;entryX=0;entryY=0.5;entryDx=0;entryDy=0;strokeColor=#FF2617;strokeWidth=2;fontStyle=1;" parent="1" source="Joddp9kIxZkXrCVyOgkU-9" target="B8y7cgVz7MPoOvuoQykb-1" edge="1">
          <mxGeometry relative="1" as="geometry" />
        </mxCell>
        <mxCell id="Joddp9kIxZkXrCVyOgkU-9" value="IF &lt;br&gt;MEM. SEC.&lt;br&gt;COMP." style="rounded=0;whiteSpace=wrap;html=1;fontStyle=1;strokeWidth=2;fontSize=11;shape=rhombus;perimeter=rhombusPerimeter;" parent="1" vertex="1">
          <mxGeometry x="1842.5" y="310.5" width="80" height="63" as="geometry" />
        </mxCell>
        <mxCell id="Joddp9kIxZkXrCVyOgkU-60" style="edgeStyle=orthogonalEdgeStyle;rounded=0;orthogonalLoop=1;jettySize=auto;html=1;exitX=0.5;exitY=1;exitDx=0;exitDy=0;entryX=0.5;entryY=0;entryDx=0;entryDy=0;strokeColor=#00CC00;fontStyle=1;strokeWidth=2;" parent="1" source="Joddp9kIxZkXrCVyOgkU-11" target="Joddp9kIxZkXrCVyOgkU-12" edge="1">
          <mxGeometry relative="1" as="geometry" />
        </mxCell>
        <mxCell id="Joddp9kIxZkXrCVyOgkU-11" value="CLICK FORGOT PASSWORD AND ENTER UIN" style="rounded=0;whiteSpace=wrap;html=1;fontStyle=1;strokeWidth=2;fontSize=11;shape=label;" parent="1" vertex="1">
          <mxGeometry x="1060" y="408.44999999999993" width="105" height="48.1" as="geometry" />
        </mxCell>
        <mxCell id="Joddp9kIxZkXrCVyOgkU-64" style="edgeStyle=orthogonalEdgeStyle;rounded=0;orthogonalLoop=1;jettySize=auto;html=1;exitX=0.5;exitY=1;exitDx=0;exitDy=0;strokeColor=#00CC00;fontStyle=1;strokeWidth=2;" parent="1" source="Joddp9kIxZkXrCVyOgkU-12" target="Joddp9kIxZkXrCVyOgkU-62" edge="1">
          <mxGeometry relative="1" as="geometry" />
        </mxCell>
        <mxCell id="Joddp9kIxZkXrCVyOgkU-12" value="AUTHENTICATE (USING TWO)&lt;br style=&quot;border-color: var(--border-color);&quot;&gt;OTP:&amp;nbsp;&lt;u style=&quot;border-color: var(--border-color);&quot;&gt;AU.2.C&lt;/u&gt;&lt;br style=&quot;border-color: var(--border-color);&quot;&gt;PIN:&amp;nbsp;&lt;u style=&quot;border-color: var(--border-color);&quot;&gt;AU.1.F&lt;/u&gt;&lt;br style=&quot;border-color: var(--border-color);&quot;&gt;MEM. SECRET:&amp;nbsp;&lt;u style=&quot;border-color: var(--border-color);&quot;&gt;AU.1.D&lt;/u&gt;" style="rounded=0;whiteSpace=wrap;html=1;fontStyle=1;strokeWidth=2;fontSize=11;shape=label;" parent="1" vertex="1">
          <mxGeometry x="1060" y="480" width="110" height="83" as="geometry" />
        </mxCell>
        <mxCell id="Joddp9kIxZkXrCVyOgkU-116" style="edgeStyle=orthogonalEdgeStyle;rounded=0;orthogonalLoop=1;jettySize=auto;html=1;exitX=0.5;exitY=0;exitDx=0;exitDy=0;strokeColor=#00CC00;fontStyle=1;strokeWidth=2;" parent="1" source="Joddp9kIxZkXrCVyOgkU-15" target="Joddp9kIxZkXrCVyOgkU-51" edge="1">
          <mxGeometry relative="1" as="geometry" />
        </mxCell>
        <mxCell id="Joddp9kIxZkXrCVyOgkU-15" value="RECEIVE NEW AUTHENTICATOR SUCCESS NOTIFICATION" style="rounded=0;whiteSpace=wrap;html=1;fontStyle=1;strokeWidth=2;fontSize=11;shape=label;" parent="1" vertex="1">
          <mxGeometry x="2080" y="640" width="125" height="90" as="geometry" />
        </mxCell>
        <mxCell id="Joddp9kIxZkXrCVyOgkU-99" style="edgeStyle=orthogonalEdgeStyle;rounded=0;orthogonalLoop=1;jettySize=auto;html=1;exitX=0;exitY=0.5;exitDx=0;exitDy=0;strokeColor=#FF2617;strokeWidth=2;fontStyle=1;entryX=0.805;entryY=-0.068;entryDx=0;entryDy=0;entryPerimeter=0;" parent="1" source="Joddp9kIxZkXrCVyOgkU-17" target="Joddp9kIxZkXrCVyOgkU-160" edge="1">
          <mxGeometry relative="1" as="geometry">
            <Array as="points">
              <mxPoint x="1672" y="1378" />
            </Array>
          </mxGeometry>
        </mxCell>
        <mxCell id="Joddp9kIxZkXrCVyOgkU-108" style="edgeStyle=orthogonalEdgeStyle;rounded=0;orthogonalLoop=1;jettySize=auto;html=1;exitX=1;exitY=0.5;exitDx=0;exitDy=0;strokeColor=#00CC00;fontStyle=1;strokeWidth=2;jumpStyle=arc;jumpSize=11;" parent="1" source="Joddp9kIxZkXrCVyOgkU-17" target="Joddp9kIxZkXrCVyOgkU-15" edge="1">
          <mxGeometry relative="1" as="geometry">
            <Array as="points">
              <mxPoint x="1770" y="1540" />
              <mxPoint x="2142" y="1540" />
            </Array>
          </mxGeometry>
        </mxCell>
        <mxCell id="Joddp9kIxZkXrCVyOgkU-113" style="edgeStyle=orthogonalEdgeStyle;rounded=0;orthogonalLoop=1;jettySize=auto;html=1;exitX=0.5;exitY=1;exitDx=0;exitDy=0;entryX=1;entryY=0.5;entryDx=0;entryDy=0;entryPerimeter=0;startArrow=classic;startFill=1;strokeColor=#00CC00;fontStyle=1;strokeWidth=2;jumpStyle=arc;jumpSize=11;" parent="1" source="Joddp9kIxZkXrCVyOgkU-17" target="Joddp9kIxZkXrCVyOgkU-23" edge="1">
          <mxGeometry relative="1" as="geometry">
            <mxPoint x="760" y="1543" as="targetPoint" />
            <Array as="points">
              <mxPoint x="1722" y="1540" />
            </Array>
          </mxGeometry>
        </mxCell>
        <mxCell id="Joddp9kIxZkXrCVyOgkU-17" value="IF &lt;br&gt;NEW PIN &lt;br&gt;SUCCESS" style="rounded=0;whiteSpace=wrap;html=1;fontStyle=1;strokeWidth=2;fontSize=11;shape=rhombus;perimeter=rhombusPerimeter;" parent="1" vertex="1">
          <mxGeometry x="1675" y="1345.1299999999999" width="95" height="66.24" as="geometry" />
        </mxCell>
        <mxCell id="Joddp9kIxZkXrCVyOgkU-27" style="edgeStyle=orthogonalEdgeStyle;rounded=0;orthogonalLoop=1;jettySize=auto;html=1;exitX=0.5;exitY=1;exitDx=0;exitDy=0;strokeColor=#00CC00;fontStyle=1;strokeWidth=2;" parent="1" source="Joddp9kIxZkXrCVyOgkU-19" target="Joddp9kIxZkXrCVyOgkU-24" edge="1">
          <mxGeometry relative="1" as="geometry" />
        </mxCell>
        <mxCell id="Joddp9kIxZkXrCVyOgkU-58" style="edgeStyle=orthogonalEdgeStyle;rounded=0;orthogonalLoop=1;jettySize=auto;html=1;exitX=1;exitY=0.5;exitDx=0;exitDy=0;entryX=0;entryY=0.5;entryDx=0;entryDy=0;strokeColor=#FF2617;strokeWidth=2;fontStyle=1;" parent="1" source="Joddp9kIxZkXrCVyOgkU-19" target="Joddp9kIxZkXrCVyOgkU-30" edge="1">
          <mxGeometry relative="1" as="geometry" />
        </mxCell>
        <mxCell id="Joddp9kIxZkXrCVyOgkU-19" value="IF ANOMALY &lt;br&gt;DETECTION SYSTEM SUSPECTS AUTH. &lt;br&gt;COMP." style="rounded=0;whiteSpace=wrap;html=1;fontStyle=1;strokeWidth=2;fontSize=11;shape=rhombus;perimeter=rhombusPerimeter;" parent="1" vertex="1">
          <mxGeometry x="388.75" y="1326.76" width="141.25" height="114.24" as="geometry" />
        </mxCell>
        <mxCell id="Joddp9kIxZkXrCVyOgkU-31" style="edgeStyle=orthogonalEdgeStyle;rounded=0;orthogonalLoop=1;jettySize=auto;html=1;exitX=0.5;exitY=0;exitDx=0;exitDy=0;exitPerimeter=0;entryX=0.5;entryY=1;entryDx=0;entryDy=0;strokeColor=#00CC00;fontStyle=1;strokeWidth=2;" parent="1" source="Joddp9kIxZkXrCVyOgkU-23" target="Joddp9kIxZkXrCVyOgkU-30" edge="1">
          <mxGeometry relative="1" as="geometry" />
        </mxCell>
        <mxCell id="Joddp9kIxZkXrCVyOgkU-87" style="edgeStyle=orthogonalEdgeStyle;rounded=0;orthogonalLoop=1;jettySize=auto;html=1;exitX=1;exitY=0;exitDx=0;exitDy=52.5;exitPerimeter=0;entryX=0.5;entryY=1;entryDx=0;entryDy=0;strokeColor=#FF2617;strokeWidth=2;fontStyle=1;startArrow=classic;startFill=1;" parent="1" source="Joddp9kIxZkXrCVyOgkU-23" target="Joddp9kIxZkXrCVyOgkU-84" edge="1">
          <mxGeometry relative="1" as="geometry">
            <Array as="points">
              <mxPoint x="1487" y="1552" />
            </Array>
          </mxGeometry>
        </mxCell>
        <mxCell id="Joddp9kIxZkXrCVyOgkU-23" value="STORE AUTHENTICATOR STATUS IN UIN ACCOUNT" style="shape=label;whiteSpace=wrap;html=1;boundedLbl=1;backgroundOutline=1;size=15;fontSize=11;rounded=0;fontStyle=1;strokeWidth=2;" parent="1" vertex="1">
          <mxGeometry x="620" y="1500" width="140" height="79.13" as="geometry" />
        </mxCell>
        <mxCell id="Joddp9kIxZkXrCVyOgkU-28" style="edgeStyle=orthogonalEdgeStyle;rounded=0;orthogonalLoop=1;jettySize=auto;html=1;exitX=0.5;exitY=1;exitDx=0;exitDy=0;entryX=0.5;entryY=0;entryDx=0;entryDy=0;strokeColor=#00CC00;fontStyle=1;strokeWidth=2;" parent="1" source="Joddp9kIxZkXrCVyOgkU-24" target="BE9_RFCj5CCN3_UdHpAw-1" edge="1">
          <mxGeometry relative="1" as="geometry" />
        </mxCell>
        <mxCell id="Joddp9kIxZkXrCVyOgkU-24" value="REJECT AUTH. REQUEST" style="rounded=0;whiteSpace=wrap;html=1;fontStyle=1;strokeWidth=2;fontSize=11;fillColor=default;strokeColor=default;" parent="1" vertex="1">
          <mxGeometry x="409.69" y="1472.69" width="100" height="30" as="geometry" />
        </mxCell>
        <mxCell id="Joddp9kIxZkXrCVyOgkU-26" value="" style="edgeStyle=orthogonalEdgeStyle;rounded=0;orthogonalLoop=1;jettySize=auto;html=1;exitX=0.5;exitY=1;exitDx=0;exitDy=0;exitPerimeter=0;strokeColor=#00CC00;fontStyle=1;strokeWidth=2;" parent="1" source="Joddp9kIxZkXrCVyOgkU-2" target="Joddp9kIxZkXrCVyOgkU-25" edge="1">
          <mxGeometry relative="1" as="geometry">
            <mxPoint x="450" y="244" as="sourcePoint" />
            <mxPoint x="491" y="1543" as="targetPoint" />
          </mxGeometry>
        </mxCell>
        <mxCell id="Joddp9kIxZkXrCVyOgkU-25" value="AUTH. USING:&lt;br style=&quot;font-size: 11px;&quot;&gt;PASSWORD:&amp;nbsp;&lt;u style=&quot;border-color: var(--border-color);&quot;&gt;AU.1.B&lt;/u&gt;&lt;br style=&quot;border-color: var(--border-color);&quot;&gt;OTP:&amp;nbsp;&lt;u style=&quot;border-color: var(--border-color);&quot;&gt;AU.2.C&lt;/u&gt;&lt;br style=&quot;border-color: var(--border-color);&quot;&gt;MEM. SEC.:&amp;nbsp;&lt;u style=&quot;border-color: var(--border-color);&quot;&gt;AU.1.D&lt;/u&gt;&lt;br style=&quot;border-color: var(--border-color);&quot;&gt;PIN:&amp;nbsp;&lt;u style=&quot;border-color: var(--border-color);&quot;&gt;AU.1.F&lt;/u&gt;&lt;br style=&quot;border-color: var(--border-color);&quot;&gt;TOKEN:&amp;nbsp;&lt;u style=&quot;border-color: var(--border-color);&quot;&gt;AU.2.E&lt;/u&gt;" style="rounded=0;whiteSpace=wrap;html=1;fontStyle=1;strokeWidth=2;fontSize=11;shape=label;" parent="1" vertex="1">
          <mxGeometry x="400" y="385.37" width="120" height="94.25" as="geometry" />
        </mxCell>
        <mxCell id="Joddp9kIxZkXrCVyOgkU-34" style="edgeStyle=orthogonalEdgeStyle;rounded=0;orthogonalLoop=1;jettySize=auto;html=1;exitX=0.5;exitY=0;exitDx=0;exitDy=0;entryX=0.5;entryY=1;entryDx=0;entryDy=0;strokeColor=#00CC00;fontStyle=1;strokeWidth=2;" parent="1" source="Joddp9kIxZkXrCVyOgkU-30" target="Joddp9kIxZkXrCVyOgkU-32" edge="1">
          <mxGeometry relative="1" as="geometry" />
        </mxCell>
        <mxCell id="Joddp9kIxZkXrCVyOgkU-30" value="NOTIFY USER ON EMAIL/SMS WITH AUTH. ATEMPT WITH TIMESTAMP AND I.P. ADDRESS" style="rounded=0;whiteSpace=wrap;html=1;fontStyle=1;strokeWidth=2;fontSize=11;fillColor=default;strokeColor=default;" parent="1" vertex="1">
          <mxGeometry x="610" y="1350.25" width="160" height="67.75" as="geometry" />
        </mxCell>
        <mxCell id="Joddp9kIxZkXrCVyOgkU-35" style="edgeStyle=orthogonalEdgeStyle;rounded=0;orthogonalLoop=1;jettySize=auto;html=1;exitX=1;exitY=0.5;exitDx=0;exitDy=0;entryX=0;entryY=0.5;entryDx=0;entryDy=0;strokeColor=#00CC00;fontStyle=1;strokeWidth=2;" parent="1" source="Joddp9kIxZkXrCVyOgkU-32" target="Joddp9kIxZkXrCVyOgkU-33" edge="1">
          <mxGeometry relative="1" as="geometry" />
        </mxCell>
        <mxCell id="Joddp9kIxZkXrCVyOgkU-32" value="RECEIVE AUTH. ATEMPT NOTIFICATION WITH LINK TO VERIFY" style="rounded=0;whiteSpace=wrap;html=1;fontStyle=1;strokeWidth=2;fontSize=11;shape=label;" parent="1" vertex="1">
          <mxGeometry x="637" y="305.5" width="105" height="73" as="geometry" />
        </mxCell>
        <mxCell id="Joddp9kIxZkXrCVyOgkU-38" style="edgeStyle=orthogonalEdgeStyle;rounded=0;orthogonalLoop=1;jettySize=auto;html=1;exitX=0.5;exitY=1;exitDx=0;exitDy=0;entryX=0.5;entryY=0;entryDx=0;entryDy=0;strokeColor=#00CC00;fontStyle=1;strokeWidth=2;" parent="1" source="Joddp9kIxZkXrCVyOgkU-39" target="Joddp9kIxZkXrCVyOgkU-37" edge="1">
          <mxGeometry relative="1" as="geometry" />
        </mxCell>
        <mxCell id="Joddp9kIxZkXrCVyOgkU-33" value="IF USER RECOGNISE ATTEMPT" style="rounded=0;whiteSpace=wrap;html=1;fontStyle=1;strokeWidth=2;fontSize=11;shape=rhombus;perimeter=rhombusPerimeter;" parent="1" vertex="1">
          <mxGeometry x="765" y="306.55" width="105" height="71.05" as="geometry" />
        </mxCell>
        <mxCell id="Joddp9kIxZkXrCVyOgkU-42" style="edgeStyle=orthogonalEdgeStyle;rounded=0;orthogonalLoop=1;jettySize=auto;html=1;exitX=0.5;exitY=1;exitDx=0;exitDy=0;strokeColor=#00CC00;fontStyle=1;strokeWidth=2;" parent="1" source="Joddp9kIxZkXrCVyOgkU-37" target="Joddp9kIxZkXrCVyOgkU-41" edge="1">
          <mxGeometry relative="1" as="geometry">
            <Array as="points">
              <mxPoint x="817" y="840" />
              <mxPoint x="849" y="840" />
            </Array>
          </mxGeometry>
        </mxCell>
        <mxCell id="Joddp9kIxZkXrCVyOgkU-37" value="AUTH. USING OTHER MODE:&lt;br&gt;PASSWORD: &lt;u&gt;AU.1.B&lt;/u&gt;&lt;br&gt;OTP:&amp;nbsp;&lt;u style=&quot;border-color: var(--border-color);&quot;&gt;AU.2.C&lt;/u&gt;&lt;br&gt;MEM. SEC.:&amp;nbsp;&lt;u style=&quot;border-color: var(--border-color);&quot;&gt;AU.1.D&lt;/u&gt;&lt;br&gt;PIN:&amp;nbsp;&lt;u style=&quot;border-color: var(--border-color);&quot;&gt;AU.1.F&lt;/u&gt;&lt;br&gt;TOKEN:&amp;nbsp;&lt;u style=&quot;border-color: var(--border-color);&quot;&gt;AU.2.E&lt;/u&gt;" style="rounded=0;whiteSpace=wrap;html=1;fontStyle=1;strokeWidth=2;fontSize=11;shape=label;" parent="1" vertex="1">
          <mxGeometry x="752.5" y="630" width="130" height="100" as="geometry" />
        </mxCell>
        <mxCell id="Joddp9kIxZkXrCVyOgkU-40" value="" style="edgeStyle=orthogonalEdgeStyle;rounded=0;orthogonalLoop=1;jettySize=auto;html=1;exitX=0.5;exitY=1;exitDx=0;exitDy=0;entryX=0.5;entryY=0;entryDx=0;entryDy=0;strokeColor=#00CC00;fontStyle=1;strokeWidth=2;" parent="1" source="B8y7cgVz7MPoOvuoQykb-3" target="Joddp9kIxZkXrCVyOgkU-39" edge="1">
          <mxGeometry relative="1" as="geometry">
            <mxPoint x="818" y="378" as="sourcePoint" />
            <mxPoint x="818" y="540" as="targetPoint" />
          </mxGeometry>
        </mxCell>
        <mxCell id="Joddp9kIxZkXrCVyOgkU-39" value="CLICK ON RECEIVED LINK TO DID PORTAL" style="rounded=0;whiteSpace=wrap;html=1;fontStyle=1;strokeWidth=2;fontSize=11;shape=label;" parent="1" vertex="1">
          <mxGeometry x="762.5" y="530" width="110" height="60.65" as="geometry" />
        </mxCell>
        <mxCell id="Joddp9kIxZkXrCVyOgkU-46" style="edgeStyle=orthogonalEdgeStyle;rounded=0;orthogonalLoop=1;jettySize=auto;html=1;exitX=1;exitY=0.5;exitDx=0;exitDy=0;strokeColor=#FF2617;strokeWidth=2;fontStyle=1;" parent="1" source="Joddp9kIxZkXrCVyOgkU-41" target="Joddp9kIxZkXrCVyOgkU-160" edge="1">
          <mxGeometry relative="1" as="geometry">
            <Array as="points">
              <mxPoint x="920" y="1358" />
            </Array>
          </mxGeometry>
        </mxCell>
        <mxCell id="Joddp9kIxZkXrCVyOgkU-72" style="edgeStyle=orthogonalEdgeStyle;rounded=0;orthogonalLoop=1;jettySize=auto;html=1;exitX=0;exitY=0.5;exitDx=0;exitDy=0;entryX=1;entryY=0;entryDx=0;entryDy=27.5;entryPerimeter=0;startArrow=classic;startFill=1;strokeColor=#FF2617;strokeWidth=2;fontStyle=1;" parent="1" source="Joddp9kIxZkXrCVyOgkU-41" target="Joddp9kIxZkXrCVyOgkU-23" edge="1">
          <mxGeometry relative="1" as="geometry" />
        </mxCell>
        <mxCell id="Joddp9kIxZkXrCVyOgkU-41" value="IF AUTH. SUCCESS" style="rounded=0;whiteSpace=wrap;html=1;fontStyle=1;strokeWidth=2;fontSize=11;shape=rhombus;perimeter=rhombusPerimeter;" parent="1" vertex="1">
          <mxGeometry x="807.5" y="1323" width="82.5" height="70" as="geometry" />
        </mxCell>
        <mxCell id="Joddp9kIxZkXrCVyOgkU-44" value="&lt;span style=&quot;border-color: var(--border-color);&quot;&gt;&lt;b&gt;TERMINATE PROCESS:&lt;br&gt;&lt;/b&gt;LOCK UIN ACCOUNT FOR 24 HOURS&lt;br&gt;&lt;/span&gt;" style="strokeWidth=2;html=1;shape=mxgraph.flowchart.terminator;whiteSpace=wrap;fillColor=#f8cecc;strokeColor=#b85450;" parent="1" vertex="1">
          <mxGeometry x="1915" y="1564.56" width="220" height="49" as="geometry" />
        </mxCell>
        <mxCell id="Joddp9kIxZkXrCVyOgkU-45" value="KR" style="ellipse;whiteSpace=wrap;html=1;fillColor=#dae8fc;strokeColor=#6c8ebf;gradientColor=#7ea6e0;fontStyle=1" parent="1" vertex="1">
          <mxGeometry x="1985" y="1544.2499999999998" width="30" height="26" as="geometry" />
        </mxCell>
        <mxCell id="Joddp9kIxZkXrCVyOgkU-54" style="edgeStyle=orthogonalEdgeStyle;rounded=0;orthogonalLoop=1;jettySize=auto;html=1;exitX=0.5;exitY=0;exitDx=0;exitDy=0;strokeColor=#00CC00;fontStyle=1;strokeWidth=2;" parent="1" source="Joddp9kIxZkXrCVyOgkU-48" target="Joddp9kIxZkXrCVyOgkU-51" edge="1">
          <mxGeometry relative="1" as="geometry" />
        </mxCell>
        <mxCell id="Joddp9kIxZkXrCVyOgkU-48" value="RECEIVE COMPROMISED UIN ACCOUNT NOTIFICATION ON EMAIL/SMS AND INSTRUCTIONS TO PROCEED OFFLINE TO REACTIVATE" style="rounded=0;whiteSpace=wrap;html=1;fontStyle=1;strokeWidth=2;fontSize=11;shape=label;" parent="1" vertex="1">
          <mxGeometry x="1940" y="470" width="170" height="65" as="geometry" />
        </mxCell>
        <mxCell id="Joddp9kIxZkXrCVyOgkU-50" value="" style="edgeStyle=orthogonalEdgeStyle;rounded=0;orthogonalLoop=1;jettySize=auto;html=1;strokeColor=#00CC00;fontStyle=1;strokeWidth=2;" parent="1" source="Joddp9kIxZkXrCVyOgkU-51" target="Joddp9kIxZkXrCVyOgkU-52" edge="1">
          <mxGeometry relative="1" as="geometry" />
        </mxCell>
        <mxCell id="Joddp9kIxZkXrCVyOgkU-51" value="LOGS THE PROCESS AND STATUS" style="rounded=0;whiteSpace=wrap;html=1;fontStyle=1;strokeWidth=2;shape=label;boundedLbl=1;backgroundOutline=1;size=15;" parent="1" vertex="1">
          <mxGeometry x="2195" y="1365.25" width="120" height="64.75" as="geometry" />
        </mxCell>
        <mxCell id="Joddp9kIxZkXrCVyOgkU-52" value="&lt;b&gt;END&lt;/b&gt;" style="strokeWidth=2;html=1;shape=mxgraph.flowchart.terminator;whiteSpace=wrap;fillColor=#f8cecc;strokeColor=#b85450;" parent="1" vertex="1">
          <mxGeometry x="2205" y="1504.25" width="100" height="40" as="geometry" />
        </mxCell>
        <mxCell id="Joddp9kIxZkXrCVyOgkU-53" value="IDA" style="ellipse;whiteSpace=wrap;html=1;fillColor=#dae8fc;strokeColor=#6c8ebf;gradientColor=#7ea6e0;fontStyle=1" parent="1" vertex="1">
          <mxGeometry x="2195" y="1339.25" width="30" height="26" as="geometry" />
        </mxCell>
        <mxCell id="Joddp9kIxZkXrCVyOgkU-59" value="" style="edgeStyle=orthogonalEdgeStyle;rounded=0;orthogonalLoop=1;jettySize=auto;html=1;exitX=1;exitY=0.5;exitDx=0;exitDy=0;entryX=0;entryY=0.5;entryDx=0;entryDy=0;strokeColor=#FF2617;strokeWidth=2;fontStyle=1;" parent="1" source="Joddp9kIxZkXrCVyOgkU-33" target="Joddp9kIxZkXrCVyOgkU-3" edge="1">
          <mxGeometry relative="1" as="geometry">
            <mxPoint x="870" y="342" as="sourcePoint" />
            <mxPoint x="1280" y="383" as="targetPoint" />
            <Array as="points" />
          </mxGeometry>
        </mxCell>
        <mxCell id="Joddp9kIxZkXrCVyOgkU-3" value="VISIT DID PORTAL" style="rounded=0;whiteSpace=wrap;html=1;fontStyle=1;strokeWidth=2;fontSize=11;shape=label;" parent="1" vertex="1">
          <mxGeometry x="890" y="318.02" width="105" height="48.1" as="geometry" />
        </mxCell>
        <mxCell id="Joddp9kIxZkXrCVyOgkU-73" style="edgeStyle=orthogonalEdgeStyle;rounded=0;orthogonalLoop=1;jettySize=auto;html=1;exitX=0.5;exitY=1;exitDx=0;exitDy=0;entryX=1;entryY=0;entryDx=0;entryDy=52.5;entryPerimeter=0;strokeColor=#FF2617;strokeWidth=2;fontStyle=1;startArrow=classic;startFill=1;" parent="1" source="Joddp9kIxZkXrCVyOgkU-62" target="Joddp9kIxZkXrCVyOgkU-23" edge="1">
          <mxGeometry relative="1" as="geometry">
            <Array as="points">
              <mxPoint x="1109" y="1553" />
            </Array>
          </mxGeometry>
        </mxCell>
        <mxCell id="Joddp9kIxZkXrCVyOgkU-103" style="edgeStyle=orthogonalEdgeStyle;rounded=0;orthogonalLoop=1;jettySize=auto;html=1;exitX=0;exitY=0.5;exitDx=0;exitDy=0;entryX=0.5;entryY=1;entryDx=0;entryDy=0;fillColor=#d5e8d4;strokeColor=#FF2617;strokeWidth=2;fontStyle=1;startArrow=none;startFill=0;" parent="1" source="Joddp9kIxZkXrCVyOgkU-62" target="Joddp9kIxZkXrCVyOgkU-102" edge="1">
          <mxGeometry relative="1" as="geometry" />
        </mxCell>
        <mxCell id="Joddp9kIxZkXrCVyOgkU-62" value="IF AUTH. SUCCESS" style="rounded=0;whiteSpace=wrap;html=1;fontStyle=1;strokeWidth=2;fontSize=11;shape=rhombus;perimeter=rhombusPerimeter;" parent="1" vertex="1">
          <mxGeometry x="1067.5" y="1331.25" width="82.5" height="70" as="geometry" />
        </mxCell>
        <mxCell id="Joddp9kIxZkXrCVyOgkU-150" style="edgeStyle=orthogonalEdgeStyle;rounded=0;orthogonalLoop=1;jettySize=auto;html=1;exitX=0.5;exitY=1;exitDx=0;exitDy=0;entryX=0.5;entryY=0;entryDx=0;entryDy=0;strokeColor=#00CC00;fontStyle=1;strokeWidth=2;" parent="1" source="Joddp9kIxZkXrCVyOgkU-65" target="Joddp9kIxZkXrCVyOgkU-149" edge="1">
          <mxGeometry relative="1" as="geometry" />
        </mxCell>
        <mxCell id="Joddp9kIxZkXrCVyOgkU-65" value="AUTH. USING PASSWORD:&lt;br&gt;&lt;u&gt;AU.1.B&lt;/u&gt;" style="rounded=0;whiteSpace=wrap;html=1;fontStyle=1;strokeWidth=2;fontSize=11;shape=label;" parent="1" vertex="1">
          <mxGeometry x="1190" y="320" width="75" height="43" as="geometry" />
        </mxCell>
        <mxCell id="Joddp9kIxZkXrCVyOgkU-156" style="edgeStyle=orthogonalEdgeStyle;rounded=0;orthogonalLoop=1;jettySize=auto;html=1;exitX=1;exitY=0.5;exitDx=0;exitDy=0;strokeColor=#00CC00;fontStyle=1;strokeWidth=2;" parent="1" source="Joddp9kIxZkXrCVyOgkU-68" target="Joddp9kIxZkXrCVyOgkU-155" edge="1">
          <mxGeometry relative="1" as="geometry">
            <Array as="points">
              <mxPoint x="1613" y="341" />
            </Array>
          </mxGeometry>
        </mxCell>
        <mxCell id="Joddp9kIxZkXrCVyOgkU-68" value="AUTH. USING OTP:&lt;br&gt;&lt;u&gt;AU.2.C&lt;/u&gt;" style="rounded=0;whiteSpace=wrap;html=1;fontStyle=1;strokeWidth=2;fontSize=11;shape=label;" parent="1" vertex="1">
          <mxGeometry x="1559.75" y="321" width="75" height="40" as="geometry" />
        </mxCell>
        <mxCell id="Joddp9kIxZkXrCVyOgkU-85" style="edgeStyle=orthogonalEdgeStyle;rounded=0;orthogonalLoop=1;jettySize=auto;html=1;exitX=0.5;exitY=1;exitDx=0;exitDy=0;strokeColor=#00CC00;fontStyle=1;strokeWidth=2;" parent="1" source="Joddp9kIxZkXrCVyOgkU-75" target="Joddp9kIxZkXrCVyOgkU-84" edge="1">
          <mxGeometry relative="1" as="geometry" />
        </mxCell>
        <mxCell id="Joddp9kIxZkXrCVyOgkU-75" value="AUTHENTICATE (USING ONE)&lt;br style=&quot;border-color: var(--border-color);&quot;&gt;PIN:&amp;nbsp;&lt;u style=&quot;border-color: var(--border-color);&quot;&gt;AU.1.F&lt;/u&gt;&lt;br style=&quot;border-color: var(--border-color);&quot;&gt;MEM. SECRET:&amp;nbsp;&lt;u style=&quot;border-color: var(--border-color);&quot;&gt;AU.1.D&lt;/u&gt;" style="rounded=0;whiteSpace=wrap;html=1;fontStyle=1;strokeWidth=2;fontSize=11;shape=label;" parent="1" vertex="1">
          <mxGeometry x="1426" y="418" width="122.5" height="83" as="geometry" />
        </mxCell>
        <mxCell id="Joddp9kIxZkXrCVyOgkU-101" style="edgeStyle=orthogonalEdgeStyle;rounded=0;orthogonalLoop=1;jettySize=auto;html=1;exitX=1;exitY=0.5;exitDx=0;exitDy=0;entryX=0.5;entryY=0;entryDx=0;entryDy=0;strokeColor=#00CC00;fontStyle=1;strokeWidth=2;" parent="1" source="Joddp9kIxZkXrCVyOgkU-76" target="Joddp9kIxZkXrCVyOgkU-91" edge="1">
          <mxGeometry relative="1" as="geometry">
            <Array as="points">
              <mxPoint x="1390" y="700" />
              <mxPoint x="1390" y="1344" />
            </Array>
          </mxGeometry>
        </mxCell>
        <mxCell id="Joddp9kIxZkXrCVyOgkU-76" value="CREATE NEW STRONG PASSWORD&lt;br&gt;&lt;u&gt;AU.1.A&lt;/u&gt;" style="rounded=0;whiteSpace=wrap;html=1;fontStyle=1;strokeWidth=2;fontSize=11;shape=label;" parent="1" vertex="1">
          <mxGeometry x="1314" y="670" width="100" height="60" as="geometry" />
        </mxCell>
        <mxCell id="Joddp9kIxZkXrCVyOgkU-79" value="ADMIN-&lt;br&gt;ISTRATOR" style="text;html=1;align=center;verticalAlign=middle;resizable=0;points=[];autosize=1;strokeColor=none;fillColor=none;fontStyle=1;fontSize=23;strokeWidth=2;horizontal=0;" parent="1" vertex="1">
          <mxGeometry x="240" y="790" width="80" height="130" as="geometry" />
        </mxCell>
        <mxCell id="Joddp9kIxZkXrCVyOgkU-81" value="" style="edgeStyle=orthogonalEdgeStyle;rounded=0;orthogonalLoop=1;jettySize=auto;html=1;exitX=1;exitY=0.5;exitDx=0;exitDy=0;entryX=0.5;entryY=1;entryDx=0;entryDy=0;strokeColor=#00CC00;fontStyle=1;strokeWidth=2;" parent="1" source="Joddp9kIxZkXrCVyOgkU-62" target="Joddp9kIxZkXrCVyOgkU-76" edge="1">
          <mxGeometry relative="1" as="geometry">
            <mxPoint x="1230" y="1356.25" as="sourcePoint" />
            <mxPoint x="1325" y="994.3699999999999" as="targetPoint" />
            <Array as="points">
              <mxPoint x="1150" y="1160" />
              <mxPoint x="1364" y="1160" />
            </Array>
          </mxGeometry>
        </mxCell>
        <mxCell id="Joddp9kIxZkXrCVyOgkU-88" style="edgeStyle=orthogonalEdgeStyle;rounded=0;orthogonalLoop=1;jettySize=auto;html=1;exitX=0;exitY=0.5;exitDx=0;exitDy=0;strokeColor=#FF2617;strokeWidth=2;fontStyle=1;entryX=0.57;entryY=-0.091;entryDx=0;entryDy=0;entryPerimeter=0;" parent="1" source="Joddp9kIxZkXrCVyOgkU-84" target="Joddp9kIxZkXrCVyOgkU-160" edge="1">
          <mxGeometry relative="1" as="geometry">
            <mxPoint x="1446" y="1372.25" as="sourcePoint" />
            <mxPoint x="1836.0000000000002" y="1602.0600000000002" as="targetPoint" />
            <Array as="points">
              <mxPoint x="1444" y="1356" />
            </Array>
          </mxGeometry>
        </mxCell>
        <mxCell id="Joddp9kIxZkXrCVyOgkU-90" style="edgeStyle=orthogonalEdgeStyle;rounded=0;orthogonalLoop=1;jettySize=auto;html=1;exitX=1;exitY=0.5;exitDx=0;exitDy=0;entryX=0;entryY=0.5;entryDx=0;entryDy=0;strokeColor=#00CC00;fontStyle=1;strokeWidth=2;" parent="1" source="Joddp9kIxZkXrCVyOgkU-84" target="Joddp9kIxZkXrCVyOgkU-89" edge="1">
          <mxGeometry relative="1" as="geometry">
            <Array as="points">
              <mxPoint x="1529" y="1190" />
              <mxPoint x="1660" y="1190" />
              <mxPoint x="1660" y="700" />
            </Array>
          </mxGeometry>
        </mxCell>
        <mxCell id="Joddp9kIxZkXrCVyOgkU-84" value="IF AUTH. SUCCESS" style="rounded=0;whiteSpace=wrap;html=1;fontStyle=1;strokeWidth=2;fontSize=11;shape=rhombus;perimeter=rhombusPerimeter;" parent="1" vertex="1">
          <mxGeometry x="1446" y="1321.25" width="82.5" height="70" as="geometry" />
        </mxCell>
        <mxCell id="Joddp9kIxZkXrCVyOgkU-89" value="UPDATE CONTACT DETAILS&lt;br&gt;&lt;u&gt;LM.1.A&lt;/u&gt;" style="rounded=0;whiteSpace=wrap;html=1;fontStyle=1;strokeWidth=2;fontSize=11;shape=label;" parent="1" vertex="1">
          <mxGeometry x="1690" y="670" width="75.63" height="60" as="geometry" />
        </mxCell>
        <mxCell id="Joddp9kIxZkXrCVyOgkU-106" style="edgeStyle=orthogonalEdgeStyle;rounded=0;orthogonalLoop=1;jettySize=auto;html=1;exitX=0.5;exitY=1;exitDx=0;exitDy=0;entryX=0.5;entryY=1;entryDx=0;entryDy=0;strokeColor=#00CC00;fontStyle=1;strokeWidth=2;jumpStyle=arc;jumpSize=11;" parent="1" source="Joddp9kIxZkXrCVyOgkU-91" target="Joddp9kIxZkXrCVyOgkU-15" edge="1">
          <mxGeometry relative="1" as="geometry">
            <Array as="points">
              <mxPoint x="1390" y="1540" />
              <mxPoint x="2142" y="1540" />
            </Array>
          </mxGeometry>
        </mxCell>
        <mxCell id="Joddp9kIxZkXrCVyOgkU-107" style="edgeStyle=orthogonalEdgeStyle;rounded=0;orthogonalLoop=1;jettySize=auto;html=1;exitX=1;exitY=0.5;exitDx=0;exitDy=0;strokeColor=#FF2617;strokeWidth=2;fontStyle=1;entryX=0.556;entryY=-0.106;entryDx=0;entryDy=0;entryPerimeter=0;" parent="1" source="Joddp9kIxZkXrCVyOgkU-91" target="Joddp9kIxZkXrCVyOgkU-160" edge="1">
          <mxGeometry relative="1" as="geometry">
            <mxPoint x="1345" y="1379.13" as="sourcePoint" />
            <Array as="points">
              <mxPoint x="1430" y="1379" />
            </Array>
          </mxGeometry>
        </mxCell>
        <mxCell id="Joddp9kIxZkXrCVyOgkU-112" style="edgeStyle=orthogonalEdgeStyle;rounded=0;orthogonalLoop=1;jettySize=auto;html=1;exitX=0;exitY=0.5;exitDx=0;exitDy=0;entryX=1;entryY=0.5;entryDx=0;entryDy=0;entryPerimeter=0;startArrow=classic;startFill=1;strokeColor=#00CC00;strokeWidth=2;fontStyle=1;jumpStyle=arc;jumpSize=11;" parent="1" source="Joddp9kIxZkXrCVyOgkU-91" target="Joddp9kIxZkXrCVyOgkU-23" edge="1">
          <mxGeometry relative="1" as="geometry">
            <Array as="points">
              <mxPoint x="1300" y="1379" />
              <mxPoint x="1300" y="1539" />
            </Array>
          </mxGeometry>
        </mxCell>
        <mxCell id="Joddp9kIxZkXrCVyOgkU-91" value="IF &lt;br&gt;NEW PASS. SUCCESS" style="rounded=0;whiteSpace=wrap;html=1;fontStyle=1;strokeWidth=2;fontSize=11;shape=rhombus;perimeter=rhombusPerimeter;" parent="1" vertex="1">
          <mxGeometry x="1348.5" y="1344.13" width="82.5" height="70" as="geometry" />
        </mxCell>
        <mxCell id="Joddp9kIxZkXrCVyOgkU-111" style="edgeStyle=orthogonalEdgeStyle;rounded=0;orthogonalLoop=1;jettySize=auto;html=1;exitX=0.5;exitY=1;exitDx=0;exitDy=0;strokeColor=#00CC00;fontStyle=1;strokeWidth=2;" parent="1" source="Joddp9kIxZkXrCVyOgkU-94" target="Joddp9kIxZkXrCVyOgkU-17" edge="1">
          <mxGeometry relative="1" as="geometry">
            <Array as="points">
              <mxPoint x="1770" y="1160" />
              <mxPoint x="1723" y="1160" />
            </Array>
          </mxGeometry>
        </mxCell>
        <mxCell id="Joddp9kIxZkXrCVyOgkU-94" value="CREATE NEW PIN&lt;br&gt;&lt;u&gt;AU.1.E&lt;/u&gt;" style="rounded=0;whiteSpace=wrap;html=1;fontStyle=1;strokeWidth=2;fontSize=11;shape=label;" parent="1" vertex="1">
          <mxGeometry x="1722.5" y="418" width="95" height="42" as="geometry" />
        </mxCell>
        <mxCell id="Joddp9kIxZkXrCVyOgkU-110" style="edgeStyle=orthogonalEdgeStyle;rounded=0;orthogonalLoop=1;jettySize=auto;html=1;exitX=0.5;exitY=1;exitDx=0;exitDy=0;strokeColor=#00CC00;fontStyle=1;strokeWidth=2;entryX=0.5;entryY=0;entryDx=0;entryDy=0;" parent="1" source="Joddp9kIxZkXrCVyOgkU-96" target="Joddp9kIxZkXrCVyOgkU-98" edge="1">
          <mxGeometry relative="1" as="geometry">
            <Array as="points">
              <mxPoint x="1883" y="902" />
              <mxPoint x="1915" y="902" />
              <mxPoint x="1915" y="1160" />
              <mxPoint x="1833" y="1160" />
            </Array>
          </mxGeometry>
        </mxCell>
        <mxCell id="Joddp9kIxZkXrCVyOgkU-96" value="CREATE NEW MEM. SEC.&lt;br&gt;&lt;u&gt;AU.1.C&lt;/u&gt;" style="rounded=0;whiteSpace=wrap;html=1;fontStyle=1;strokeWidth=2;fontSize=11;shape=label;" parent="1" vertex="1">
          <mxGeometry x="1835" y="418" width="95" height="42" as="geometry" />
        </mxCell>
        <mxCell id="Joddp9kIxZkXrCVyOgkU-100" style="edgeStyle=orthogonalEdgeStyle;rounded=0;orthogonalLoop=1;jettySize=auto;html=1;exitX=0;exitY=0.5;exitDx=0;exitDy=0;strokeColor=#FF2617;strokeWidth=2;fontStyle=1;entryX=0.922;entryY=-0.023;entryDx=0;entryDy=0;entryPerimeter=0;" parent="1" source="Joddp9kIxZkXrCVyOgkU-98" target="Joddp9kIxZkXrCVyOgkU-160" edge="1">
          <mxGeometry relative="1" as="geometry">
            <Array as="points">
              <mxPoint x="1785" y="1560" />
              <mxPoint x="1785" y="1560" />
            </Array>
          </mxGeometry>
        </mxCell>
        <mxCell id="Joddp9kIxZkXrCVyOgkU-109" style="edgeStyle=orthogonalEdgeStyle;rounded=0;orthogonalLoop=1;jettySize=auto;html=1;exitX=1;exitY=0.5;exitDx=0;exitDy=0;strokeColor=#00CC00;fontStyle=1;strokeWidth=2;jumpStyle=arc;jumpSize=11;" parent="1" source="Joddp9kIxZkXrCVyOgkU-98" target="Joddp9kIxZkXrCVyOgkU-15" edge="1">
          <mxGeometry relative="1" as="geometry">
            <Array as="points">
              <mxPoint x="1880" y="1540" />
              <mxPoint x="2142" y="1540" />
            </Array>
          </mxGeometry>
        </mxCell>
        <mxCell id="Joddp9kIxZkXrCVyOgkU-98" value="IF NEW &lt;br&gt;MEM. SEC.&lt;br&gt;SUCCESS" style="rounded=0;whiteSpace=wrap;html=1;fontStyle=1;strokeWidth=2;fontSize=11;shape=rhombus;perimeter=rhombusPerimeter;" parent="1" vertex="1">
          <mxGeometry x="1785" y="1344.1299999999999" width="95" height="66.24" as="geometry" />
        </mxCell>
        <mxCell id="Joddp9kIxZkXrCVyOgkU-102" value="GENERATE NEW FTP&lt;br&gt;AND POST TO SUBSCRIBER ADDRESS&lt;br&gt;&lt;u&gt;OB.4.C&lt;/u&gt;" style="rounded=0;whiteSpace=wrap;html=1;fontStyle=1;strokeWidth=2;fontSize=11;shape=label;" parent="1" vertex="1">
          <mxGeometry x="890" y="820" width="140" height="60" as="geometry" />
        </mxCell>
        <mxCell id="Joddp9kIxZkXrCVyOgkU-43" value="REACTIVATE&lt;br&gt;AUTHENTICATORS" style="edgeStyle=orthogonalEdgeStyle;rounded=0;orthogonalLoop=1;jettySize=auto;html=1;exitX=0.5;exitY=1;exitDx=0;exitDy=0;entryX=1;entryY=0.5;entryDx=0;entryDy=0;entryPerimeter=0;labelBackgroundColor=default;strokeColor=#00CC00;fontStyle=1;strokeWidth=2;" parent="1" source="Joddp9kIxZkXrCVyOgkU-41" target="Joddp9kIxZkXrCVyOgkU-23" edge="1">
          <mxGeometry x="0.1919" y="1" relative="1" as="geometry">
            <mxPoint as="offset" />
          </mxGeometry>
        </mxCell>
        <mxCell id="Joddp9kIxZkXrCVyOgkU-118" value="ADMIN" style="shape=umlActor;verticalLabelPosition=bottom;verticalAlign=top;html=1;outlineConnect=0;fontStyle=1" parent="1" vertex="1">
          <mxGeometry x="320" y="820" width="30" height="60" as="geometry" />
        </mxCell>
        <mxCell id="Joddp9kIxZkXrCVyOgkU-119" value="" style="group" parent="1" vertex="1" connectable="0">
          <mxGeometry x="1030" y="1060" width="220" height="78" as="geometry" />
        </mxCell>
        <mxCell id="Joddp9kIxZkXrCVyOgkU-120" value="MASK &amp;amp; ENCRYPT&amp;nbsp; AUTHENTICATION." style="rounded=0;whiteSpace=wrap;html=1;fontStyle=1;strokeWidth=2;fontSize=11;container=0;" parent="Joddp9kIxZkXrCVyOgkU-119" vertex="1">
          <mxGeometry x="28.97" y="4.13" width="191.03" height="69.75" as="geometry" />
        </mxCell>
        <mxCell id="Joddp9kIxZkXrCVyOgkU-121" value="KM" style="ellipse;whiteSpace=wrap;html=1;fillColor=#dae8fc;strokeColor=#6c8ebf;gradientColor=#7ea6e0;fontStyle=1" parent="Joddp9kIxZkXrCVyOgkU-119" vertex="1">
          <mxGeometry width="28.965517241379303" height="26" as="geometry" />
        </mxCell>
        <mxCell id="Joddp9kIxZkXrCVyOgkU-122" value="HSM" style="ellipse;whiteSpace=wrap;html=1;fillColor=#dae8fc;strokeColor=#6c8ebf;gradientColor=#7ea6e0;fontStyle=1" parent="Joddp9kIxZkXrCVyOgkU-119" vertex="1">
          <mxGeometry y="26" width="28.965517241379303" height="26" as="geometry" />
        </mxCell>
        <mxCell id="Joddp9kIxZkXrCVyOgkU-123" value="CA" style="ellipse;whiteSpace=wrap;html=1;fillColor=#dae8fc;strokeColor=#6c8ebf;gradientColor=#7ea6e0;fontStyle=1" parent="Joddp9kIxZkXrCVyOgkU-119" vertex="1">
          <mxGeometry y="52" width="28.965517241379303" height="26" as="geometry" />
        </mxCell>
        <mxCell id="Joddp9kIxZkXrCVyOgkU-124" value="" style="group" parent="1" vertex="1" connectable="0">
          <mxGeometry x="1396" y="1045.88" width="240" height="78" as="geometry" />
        </mxCell>
        <mxCell id="Joddp9kIxZkXrCVyOgkU-125" value="MASK &amp;amp; ENCRYPT&amp;nbsp; &lt;br&gt;AUTHENTICATION." style="rounded=0;whiteSpace=wrap;html=1;fontStyle=1;strokeWidth=2;fontSize=11;container=0;" parent="Joddp9kIxZkXrCVyOgkU-124" vertex="1">
          <mxGeometry x="30" y="4.13" width="210" height="69.75" as="geometry" />
        </mxCell>
        <mxCell id="Joddp9kIxZkXrCVyOgkU-126" value="KM" style="ellipse;whiteSpace=wrap;html=1;fillColor=#dae8fc;strokeColor=#6c8ebf;gradientColor=#7ea6e0;fontStyle=1" parent="Joddp9kIxZkXrCVyOgkU-124" vertex="1">
          <mxGeometry width="30" height="26" as="geometry" />
        </mxCell>
        <mxCell id="Joddp9kIxZkXrCVyOgkU-127" value="HSM" style="ellipse;whiteSpace=wrap;html=1;fillColor=#dae8fc;strokeColor=#6c8ebf;gradientColor=#7ea6e0;fontStyle=1" parent="Joddp9kIxZkXrCVyOgkU-124" vertex="1">
          <mxGeometry y="26" width="30" height="26" as="geometry" />
        </mxCell>
        <mxCell id="Joddp9kIxZkXrCVyOgkU-128" value="CA" style="ellipse;whiteSpace=wrap;html=1;fillColor=#dae8fc;strokeColor=#6c8ebf;gradientColor=#7ea6e0;fontStyle=1" parent="Joddp9kIxZkXrCVyOgkU-124" vertex="1">
          <mxGeometry y="52" width="30" height="26" as="geometry" />
        </mxCell>
        <mxCell id="Joddp9kIxZkXrCVyOgkU-129" value="" style="group" parent="1" vertex="1" connectable="0">
          <mxGeometry x="1675" y="1045.88" width="275" height="78" as="geometry" />
        </mxCell>
        <mxCell id="Joddp9kIxZkXrCVyOgkU-130" value="MASK &amp;amp; ENCRYPT&amp;nbsp; &lt;br&gt;AUTHENTICATION." style="rounded=0;whiteSpace=wrap;html=1;fontStyle=1;strokeWidth=2;fontSize=11;container=0;" parent="Joddp9kIxZkXrCVyOgkU-129" vertex="1">
          <mxGeometry x="56.89655172413793" y="4.120000000000109" width="218.10344827586206" height="69.75" as="geometry" />
        </mxCell>
        <mxCell id="Joddp9kIxZkXrCVyOgkU-131" value="KM" style="ellipse;whiteSpace=wrap;html=1;fillColor=#dae8fc;strokeColor=#6c8ebf;gradientColor=#7ea6e0;fontStyle=1" parent="Joddp9kIxZkXrCVyOgkU-129" vertex="1">
          <mxGeometry x="20" width="36.9" height="26" as="geometry" />
        </mxCell>
        <mxCell id="Joddp9kIxZkXrCVyOgkU-132" value="HSM" style="ellipse;whiteSpace=wrap;html=1;fillColor=#dae8fc;strokeColor=#6c8ebf;gradientColor=#7ea6e0;fontStyle=1" parent="Joddp9kIxZkXrCVyOgkU-129" vertex="1">
          <mxGeometry x="20" y="26" width="36.9" height="26" as="geometry" />
        </mxCell>
        <mxCell id="Joddp9kIxZkXrCVyOgkU-133" value="CA" style="ellipse;whiteSpace=wrap;html=1;fillColor=#dae8fc;strokeColor=#6c8ebf;gradientColor=#7ea6e0;fontStyle=1" parent="Joddp9kIxZkXrCVyOgkU-129" vertex="1">
          <mxGeometry x="20" y="52" width="36.9" height="26" as="geometry" />
        </mxCell>
        <mxCell id="Joddp9kIxZkXrCVyOgkU-139" value="HSM" style="ellipse;whiteSpace=wrap;html=1;fillColor=#dae8fc;strokeColor=#6c8ebf;gradientColor=#7ea6e0;fontStyle=1" parent="1" vertex="1">
          <mxGeometry x="590" y="1518.25" width="30" height="26" as="geometry" />
        </mxCell>
        <mxCell id="Joddp9kIxZkXrCVyOgkU-140" value="IDA" style="ellipse;whiteSpace=wrap;html=1;fillColor=#dae8fc;strokeColor=#6c8ebf;gradientColor=#7ea6e0;fontStyle=1" parent="1" vertex="1">
          <mxGeometry x="620" y="1474" width="30" height="26" as="geometry" />
        </mxCell>
        <mxCell id="Joddp9kIxZkXrCVyOgkU-141" value="KM" style="ellipse;whiteSpace=wrap;html=1;fillColor=#dae8fc;strokeColor=#6c8ebf;gradientColor=#7ea6e0;fontStyle=1" parent="1" vertex="1">
          <mxGeometry x="590" y="1560.56" width="30" height="26" as="geometry" />
        </mxCell>
        <mxCell id="Joddp9kIxZkXrCVyOgkU-142" value="AC" style="ellipse;whiteSpace=wrap;html=1;fillColor=#dae8fc;strokeColor=#6c8ebf;gradientColor=#7ea6e0;fontStyle=1" parent="1" vertex="1">
          <mxGeometry x="807.5" y="1316.19" width="30" height="26" as="geometry" />
        </mxCell>
        <mxCell id="Joddp9kIxZkXrCVyOgkU-143" value="AC" style="ellipse;whiteSpace=wrap;html=1;fillColor=#dae8fc;strokeColor=#6c8ebf;gradientColor=#7ea6e0;fontStyle=1" parent="1" vertex="1">
          <mxGeometry x="1060" y="1326.19" width="30" height="26" as="geometry" />
        </mxCell>
        <mxCell id="Joddp9kIxZkXrCVyOgkU-145" value="AC" style="ellipse;whiteSpace=wrap;html=1;fillColor=#dae8fc;strokeColor=#6c8ebf;gradientColor=#7ea6e0;fontStyle=1" parent="1" vertex="1">
          <mxGeometry x="1438.75" y="1319.13" width="30" height="26" as="geometry" />
        </mxCell>
        <mxCell id="Joddp9kIxZkXrCVyOgkU-151" style="edgeStyle=orthogonalEdgeStyle;rounded=0;orthogonalLoop=1;jettySize=auto;html=1;exitX=1;exitY=0.5;exitDx=0;exitDy=0;entryX=0;entryY=0.5;entryDx=0;entryDy=0;strokeColor=#00CC00;fontStyle=1;strokeWidth=2;" parent="1" source="Joddp9kIxZkXrCVyOgkU-149" target="Joddp9kIxZkXrCVyOgkU-7" edge="1">
          <mxGeometry relative="1" as="geometry">
            <Array as="points">
              <mxPoint x="1280" y="1371" />
              <mxPoint x="1280" y="341" />
            </Array>
          </mxGeometry>
        </mxCell>
        <mxCell id="Joddp9kIxZkXrCVyOgkU-152" style="edgeStyle=orthogonalEdgeStyle;rounded=0;orthogonalLoop=1;jettySize=auto;html=1;exitX=0.5;exitY=1;exitDx=0;exitDy=0;strokeColor=#FF2617;strokeWidth=2;fontStyle=1;entryX=0.347;entryY=-0.059;entryDx=0;entryDy=0;entryPerimeter=0;" parent="1" source="Joddp9kIxZkXrCVyOgkU-149" target="Joddp9kIxZkXrCVyOgkU-160" edge="1">
          <mxGeometry relative="1" as="geometry">
            <mxPoint x="1836" y="1590" as="targetPoint" />
            <Array as="points" />
          </mxGeometry>
        </mxCell>
        <mxCell id="Joddp9kIxZkXrCVyOgkU-149" value="IF AUTH. SUCCESS" style="rounded=0;whiteSpace=wrap;html=1;fontStyle=1;strokeWidth=2;fontSize=11;shape=rhombus;perimeter=rhombusPerimeter;" parent="1" vertex="1">
          <mxGeometry x="1185.5" y="1336.31" width="82.5" height="70" as="geometry" />
        </mxCell>
        <mxCell id="Joddp9kIxZkXrCVyOgkU-148" value="AC" style="ellipse;whiteSpace=wrap;html=1;fillColor=#dae8fc;strokeColor=#6c8ebf;gradientColor=#7ea6e0;fontStyle=1" parent="1" vertex="1">
          <mxGeometry x="1184.5" y="1331.25" width="30" height="26" as="geometry" />
        </mxCell>
        <mxCell id="Joddp9kIxZkXrCVyOgkU-154" value="AC" style="ellipse;whiteSpace=wrap;html=1;fillColor=#dae8fc;strokeColor=#6c8ebf;gradientColor=#7ea6e0;fontStyle=1" parent="1" vertex="1">
          <mxGeometry x="1565.75" y="1318.13" width="30" height="26" as="geometry" />
        </mxCell>
        <mxCell id="Joddp9kIxZkXrCVyOgkU-157" style="edgeStyle=orthogonalEdgeStyle;rounded=0;orthogonalLoop=1;jettySize=auto;html=1;exitX=1;exitY=0.5;exitDx=0;exitDy=0;entryX=0;entryY=0.5;entryDx=0;entryDy=0;strokeColor=#00CC00;strokeWidth=2;fontStyle=1;jumpStyle=arc;jumpSize=11;" parent="1" source="Joddp9kIxZkXrCVyOgkU-155" target="Joddp9kIxZkXrCVyOgkU-8" edge="1">
          <mxGeometry relative="1" as="geometry">
            <Array as="points">
              <mxPoint x="1670" y="1357" />
              <mxPoint x="1670" y="341" />
            </Array>
          </mxGeometry>
        </mxCell>
        <mxCell id="Joddp9kIxZkXrCVyOgkU-159" style="edgeStyle=orthogonalEdgeStyle;rounded=0;orthogonalLoop=1;jettySize=auto;html=1;exitX=0;exitY=0.5;exitDx=0;exitDy=0;strokeColor=#FF2617;strokeWidth=2;fontStyle=1;entryX=0.7;entryY=-0.049;entryDx=0;entryDy=0;entryPerimeter=0;" parent="1" source="Joddp9kIxZkXrCVyOgkU-155" target="Joddp9kIxZkXrCVyOgkU-160" edge="1">
          <mxGeometry relative="1" as="geometry">
            <Array as="points">
              <mxPoint x="1570" y="1357" />
            </Array>
          </mxGeometry>
        </mxCell>
        <mxCell id="Joddp9kIxZkXrCVyOgkU-155" value="IF AUTH. SUCCESS" style="rounded=0;whiteSpace=wrap;html=1;fontStyle=1;strokeWidth=2;fontSize=11;shape=rhombus;perimeter=rhombusPerimeter;" parent="1" vertex="1">
          <mxGeometry x="1571.25" y="1322.31" width="82.5" height="70" as="geometry" />
        </mxCell>
        <mxCell id="UWpO1L0NzYwdmghVANw--2" style="edgeStyle=orthogonalEdgeStyle;rounded=0;orthogonalLoop=1;jettySize=auto;html=1;exitX=1;exitY=0.5;exitDx=0;exitDy=0;strokeColor=#FF2617;strokeWidth=2;fontStyle=1;" parent="1" source="Joddp9kIxZkXrCVyOgkU-160" target="Joddp9kIxZkXrCVyOgkU-44" edge="1">
          <mxGeometry relative="1" as="geometry" />
        </mxCell>
        <mxCell id="Joddp9kIxZkXrCVyOgkU-160" value="ERROR AND EXCEPTION HANDLING" style="rounded=0;whiteSpace=wrap;html=1;fontStyle=1;strokeWidth=2;fontSize=11;fillColor=default;strokeColor=default;" parent="1" vertex="1">
          <mxGeometry x="891" y="1577.13" width="970" height="22.87" as="geometry" />
        </mxCell>
        <mxCell id="t8oGIxHCCfBVZsMOv7Ev-176" value="" style="group" parent="1" vertex="1" connectable="0">
          <mxGeometry x="242" y="918" width="2078" height="94.38000000000011" as="geometry" />
        </mxCell>
        <mxCell id="t8oGIxHCCfBVZsMOv7Ev-177" value="" style="group" parent="t8oGIxHCCfBVZsMOv7Ev-176" vertex="1" connectable="0">
          <mxGeometry y="20" width="2078" height="74.38000000000011" as="geometry" />
        </mxCell>
        <mxCell id="t8oGIxHCCfBVZsMOv7Ev-178" value="IDS, IPS, HONEYPOT" style="shape=label;whiteSpace=wrap;html=1;boundedLbl=1;backgroundOutline=1;darkOpacity=0.05;darkOpacity2=0.1;fillColor=#f0a30a;strokeColor=#BD7000;rounded=0;fontColor=#000000;fontSize=12;fontStyle=1" parent="t8oGIxHCCfBVZsMOv7Ev-177" vertex="1">
          <mxGeometry y="20" width="2077.999999999999" height="20" as="geometry" />
        </mxCell>
        <mxCell id="t8oGIxHCCfBVZsMOv7Ev-179" value="SINGLE/ DUAL FIREWALL" style="shape=label;whiteSpace=wrap;html=1;boundedLbl=1;backgroundOutline=1;darkOpacity=0.05;darkOpacity2=0.1;fillColor=#e51400;fontColor=#ffffff;strokeColor=#B20000;rounded=0;fontStyle=1" parent="t8oGIxHCCfBVZsMOv7Ev-177" vertex="1">
          <mxGeometry width="2077.999999999999" height="20" as="geometry" />
        </mxCell>
        <mxCell id="t8oGIxHCCfBVZsMOv7Ev-180" value="API/ HTTPS (SSL/TLS)" style="shape=label;whiteSpace=wrap;html=1;boundedLbl=1;backgroundOutline=1;darkOpacity=0.05;darkOpacity2=0.1;fillColor=#f8cecc;strokeColor=#b85450;rounded=0;fontStyle=1" parent="t8oGIxHCCfBVZsMOv7Ev-176" vertex="1">
          <mxGeometry width="2078" height="20" as="geometry" />
        </mxCell>
        <mxCell id="Joddp9kIxZkXrCVyOgkU-21" value="NOTIFICATION GENERATOR" style="rounded=0;whiteSpace=wrap;html=1;fontStyle=1;strokeWidth=2;fontSize=11;fillColor=default;strokeColor=default;" parent="1" vertex="1">
          <mxGeometry x="610" y="1287" width="160" height="30" as="geometry" />
        </mxCell>
        <mxCell id="B8y7cgVz7MPoOvuoQykb-6" style="edgeStyle=orthogonalEdgeStyle;rounded=0;orthogonalLoop=1;jettySize=auto;html=1;exitX=1;exitY=0.5;exitDx=0;exitDy=0;strokeColor=#00CC00;fontStyle=1;strokeWidth=2;" parent="1" source="B8y7cgVz7MPoOvuoQykb-1" target="Joddp9kIxZkXrCVyOgkU-51" edge="1">
          <mxGeometry relative="1" as="geometry" />
        </mxCell>
        <mxCell id="B8y7cgVz7MPoOvuoQykb-1" value="FOR BIOMETRIC COMPROMISE, PROCEED OFFLINE" style="rounded=0;whiteSpace=wrap;html=1;fontStyle=1;strokeWidth=2;fontSize=11;shape=label;" parent="1" vertex="1">
          <mxGeometry x="1955" y="321.4" width="140" height="42.85" as="geometry" />
        </mxCell>
        <mxCell id="B8y7cgVz7MPoOvuoQykb-4" value="" style="edgeStyle=orthogonalEdgeStyle;rounded=0;orthogonalLoop=1;jettySize=auto;html=1;exitX=0.5;exitY=1;exitDx=0;exitDy=0;entryX=0.5;entryY=0;entryDx=0;entryDy=0;strokeColor=#00CC00;fontStyle=1;strokeWidth=2;" parent="1" source="Joddp9kIxZkXrCVyOgkU-33" target="B8y7cgVz7MPoOvuoQykb-3" edge="1">
          <mxGeometry relative="1" as="geometry">
            <mxPoint x="818" y="378" as="sourcePoint" />
            <mxPoint x="818" y="530" as="targetPoint" />
          </mxGeometry>
        </mxCell>
        <mxCell id="B8y7cgVz7MPoOvuoQykb-5" style="edgeStyle=orthogonalEdgeStyle;rounded=0;orthogonalLoop=1;jettySize=auto;html=1;exitX=1;exitY=0.5;exitDx=0;exitDy=0;entryX=0.5;entryY=0;entryDx=0;entryDy=0;strokeColor=#FF2617;strokeWidth=2;fontStyle=1;" parent="1" source="B8y7cgVz7MPoOvuoQykb-3" target="B8y7cgVz7MPoOvuoQykb-1" edge="1">
          <mxGeometry relative="1" as="geometry">
            <Array as="points">
              <mxPoint x="1020" y="460" />
              <mxPoint x="1020" y="301" />
              <mxPoint x="2025" y="301" />
            </Array>
          </mxGeometry>
        </mxCell>
        <mxCell id="B8y7cgVz7MPoOvuoQykb-3" value="IF NOT BIOMETRICS" style="rounded=0;whiteSpace=wrap;html=1;fontStyle=1;strokeWidth=2;fontSize=11;shape=rhombus;perimeter=rhombusPerimeter;" parent="1" vertex="1">
          <mxGeometry x="773.75" y="421.38" width="87.5" height="76.23" as="geometry" />
        </mxCell>
        <mxCell id="BE9_RFCj5CCN3_UdHpAw-2" value="" style="edgeStyle=orthogonalEdgeStyle;rounded=0;orthogonalLoop=1;jettySize=auto;html=1;entryX=0;entryY=0;entryDx=0;entryDy=51.8475;entryPerimeter=0;strokeColor=#00CC00;fontStyle=1;strokeWidth=2;" parent="1" source="BE9_RFCj5CCN3_UdHpAw-1" target="Joddp9kIxZkXrCVyOgkU-23" edge="1">
          <mxGeometry relative="1" as="geometry" />
        </mxCell>
        <mxCell id="BE9_RFCj5CCN3_UdHpAw-1" value="DEACTIVATE AUTHENTICATORS" style="rounded=0;whiteSpace=wrap;html=1;fontStyle=1;strokeWidth=2;fontSize=11;fillColor=default;strokeColor=default;" parent="1" vertex="1">
          <mxGeometry x="409.37" y="1536.56" width="100" height="30" as="geometry" />
        </mxCell>
        <mxCell id="Joddp9kIxZkXrCVyOgkU-36" style="edgeStyle=orthogonalEdgeStyle;rounded=0;orthogonalLoop=1;jettySize=auto;html=1;exitX=1;exitY=0.5;exitDx=0;exitDy=0;entryX=0;entryY=0.5;entryDx=0;entryDy=0;strokeColor=#FF2617;strokeWidth=2;fontStyle=1;jumpStyle=arc;jumpSize=11;" parent="1" source="Joddp9kIxZkXrCVyOgkU-3" target="Joddp9kIxZkXrCVyOgkU-5" edge="1">
          <mxGeometry relative="1" as="geometry">
            <Array as="points">
              <mxPoint x="1030" y="342" />
              <mxPoint x="1030" y="342" />
            </Array>
          </mxGeometry>
        </mxCell>
        <mxCell id="BE9_RFCj5CCN3_UdHpAw-3" style="edgeStyle=orthogonalEdgeStyle;rounded=0;orthogonalLoop=1;jettySize=auto;html=1;exitX=1;exitY=0.5;exitDx=0;exitDy=0;strokeColor=#00CC00;fontStyle=1;strokeWidth=2;jumpStyle=arc;jumpSize=11;" parent="1" source="Joddp9kIxZkXrCVyOgkU-89" target="Joddp9kIxZkXrCVyOgkU-51" edge="1">
          <mxGeometry relative="1" as="geometry">
            <Array as="points">
              <mxPoint x="1830" y="700" />
              <mxPoint x="1830" y="830" />
              <mxPoint x="2255" y="830" />
            </Array>
          </mxGeometry>
        </mxCell>
        <mxCell id="Joddp9kIxZkXrCVyOgkU-115" style="edgeStyle=orthogonalEdgeStyle;rounded=0;orthogonalLoop=1;jettySize=auto;html=1;exitX=0.5;exitY=1;exitDx=0;exitDy=0;startArrow=classic;startFill=1;strokeColor=#00CC00;fontStyle=1;strokeWidth=2;jumpStyle=arc;jumpSize=11;" parent="1" source="Joddp9kIxZkXrCVyOgkU-98" target="Joddp9kIxZkXrCVyOgkU-23" edge="1">
          <mxGeometry relative="1" as="geometry">
            <Array as="points">
              <mxPoint x="1832" y="1539" />
            </Array>
          </mxGeometry>
        </mxCell>
        <mxCell id="Joddp9kIxZkXrCVyOgkU-49" style="edgeStyle=orthogonalEdgeStyle;rounded=0;orthogonalLoop=1;jettySize=auto;html=1;exitX=0.5;exitY=0;exitDx=0;exitDy=0;exitPerimeter=0;strokeColor=#00CC00;fontStyle=1;strokeWidth=2;jumpStyle=arc;jumpSize=11;" parent="1" source="Joddp9kIxZkXrCVyOgkU-44" target="Joddp9kIxZkXrCVyOgkU-48" edge="1">
          <mxGeometry relative="1" as="geometry" />
        </mxCell>
        <mxCell id="Joddp9kIxZkXrCVyOgkU-158" value="DEACTIVATE AUTHENTICATORS" style="edgeStyle=orthogonalEdgeStyle;rounded=0;orthogonalLoop=1;jettySize=auto;html=1;exitX=0.5;exitY=1;exitDx=0;exitDy=0;entryX=1;entryY=0;entryDx=0;entryDy=51.8475;entryPerimeter=0;strokeColor=#FF2617;strokeWidth=2;fontStyle=1;startArrow=classic;startFill=1;jumpStyle=arc;jumpSize=11;" parent="1" source="Joddp9kIxZkXrCVyOgkU-155" target="Joddp9kIxZkXrCVyOgkU-23" edge="1">
          <mxGeometry x="0.4467" relative="1" as="geometry">
            <mxPoint as="offset" />
          </mxGeometry>
        </mxCell>
        <mxCell id="t8oGIxHCCfBVZsMOv7Ev-181" value="" style="group" parent="1" vertex="1" connectable="0">
          <mxGeometry x="243" y="1207.19" width="2077" height="60" as="geometry" />
        </mxCell>
        <mxCell id="t8oGIxHCCfBVZsMOv7Ev-182" value="" style="group" parent="t8oGIxHCCfBVZsMOv7Ev-181" vertex="1" connectable="0">
          <mxGeometry y="20" width="2077" height="40" as="geometry" />
        </mxCell>
        <mxCell id="t8oGIxHCCfBVZsMOv7Ev-183" value="SINGLE / DUAL FIREWALL" style="shape=label;whiteSpace=wrap;html=1;boundedLbl=1;backgroundOutline=1;darkOpacity=0.05;darkOpacity2=0.1;fillColor=#e51400;fontColor=#ffffff;strokeColor=#B20000;rounded=0;fontStyle=1" parent="t8oGIxHCCfBVZsMOv7Ev-182" vertex="1">
          <mxGeometry width="2077" height="20" as="geometry" />
        </mxCell>
        <mxCell id="t8oGIxHCCfBVZsMOv7Ev-184" value="IDS, IPS, HONEYPOT" style="shape=label;whiteSpace=wrap;html=1;boundedLbl=1;backgroundOutline=1;darkOpacity=0.05;darkOpacity2=0.1;fillColor=#f0a30a;strokeColor=#BD7000;rounded=0;fontColor=#000000;fontSize=12;fontStyle=1" parent="t8oGIxHCCfBVZsMOv7Ev-182" vertex="1">
          <mxGeometry y="20" width="2077" height="20" as="geometry" />
        </mxCell>
        <mxCell id="t8oGIxHCCfBVZsMOv7Ev-185" value="API/ HTTPS (SSL/TLS)" style="shape=label;whiteSpace=wrap;html=1;boundedLbl=1;backgroundOutline=1;darkOpacity=0.05;darkOpacity2=0.1;fillColor=#f8cecc;strokeColor=#b85450;rounded=0;fontStyle=1" parent="t8oGIxHCCfBVZsMOv7Ev-181" vertex="1">
          <mxGeometry width="2077" height="20" as="geometry" />
        </mxCell>
        <mxCell id="Joddp9kIxZkXrCVyOgkU-47" value="NOTIFICATION GENERATOR" style="rounded=0;whiteSpace=wrap;html=1;fontStyle=1;strokeWidth=2;fontSize=11;fillColor=default;strokeColor=default;" parent="1" vertex="1">
          <mxGeometry x="1940" y="1293" width="235" height="30" as="geometry" />
        </mxCell>
        <mxCell id="Joddp9kIxZkXrCVyOgkU-105" style="edgeStyle=orthogonalEdgeStyle;rounded=0;orthogonalLoop=1;jettySize=auto;html=1;exitX=0.5;exitY=0;exitDx=0;exitDy=0;entryX=0;entryY=0.5;entryDx=0;entryDy=0;strokeColor=#00CC00;fontStyle=1;strokeWidth=2;jumpStyle=arc;jumpSize=11;" parent="1" source="Joddp9kIxZkXrCVyOgkU-102" target="Joddp9kIxZkXrCVyOgkU-76" edge="1">
          <mxGeometry relative="1" as="geometry">
            <mxPoint x="967.5" y="730" as="targetPoint" />
          </mxGeometry>
        </mxCell>
        <mxCell id="PTwNxZR1b-r2pWRPSI-h-1" value="&lt;div style=&quot;font-size: 18px;&quot;&gt;&lt;font style=&quot;font-size: 18px;&quot;&gt;&lt;b style=&quot;font-size: 18px;&quot;&gt;Purpose:&lt;/b&gt;&lt;/font&gt;&lt;/div&gt;&lt;div style=&quot;font-size: 18px;&quot;&gt;This SOP s&lt;span style=&quot;background-color: rgb(255, 255, 255); color: rgb(13, 13, 13); font-size: 18px; white-space-collapse: preserve;&quot;&gt;pecifies the process for reporting compromised security authenticators online.&lt;/span&gt;&lt;br style=&quot;font-size: 18px;&quot;&gt;&lt;/div&gt;" style="whiteSpace=wrap;html=1;align=left;rounded=0;strokeWidth=2;verticalAlign=middle;fontFamily=Helvetica;fontSize=18;fontStyle=0;" vertex="1" parent="1">
          <mxGeometry x="210" y="160.75" width="2140" height="60" as="geometry" />
        </mxCell>
      </root>
    </mxGraphModel>
  </diagram>
</mxfile>
